<svg xmlns="http://www.w3.org/2000/svg" xmlns:xlink="http://www.w3.org/1999/xlink" width="500" zoomAndPan="magnify" viewBox="0 0 375 374.999991" height="500" preserveAspectRatio="xMidYMid meet" version="1.0"><path fill="#232020" d="M 3.257812 346.566406 C 3.257812 346.566406 3.046875 339.796875 13.824219 331.550781 C 24.601562 323.304688 49.550781 350.378906 88.644531 330.28125 C 127.734375 310.183594 118.875 304.6875 112.734375 304.6875 C 106.597656 304.6875 87.582031 305.101562 81.027344 304.6875 C 74.472656 304.273438 74.265625 289.027344 66.027344 282.464844 C 57.789062 275.90625 57.789062 269.347656 67.089844 263.015625 C 76.390625 256.6875 77.449219 253.5 81.671875 239.964844 C 85.898438 226.429688 116.128906 216.703125 121.828125 207.808594 C 127.527344 198.917969 114.003906 171.636719 125.636719 174.59375 C 137.246094 177.550781 142.296875 195.753906 157.738281 205.683594 C 173.175781 215.617188 163.644531 231.488281 178.230469 247.5625 C 192.816406 263.640625 237.816406 258.558594 251.453125 233.496094 C 265.09375 208.433594 266.984375 185.589844 299.964844 160.203125 C 332.941406 134.816406 319.832031 80.464844 232.347656 57.179688 C 144.859375 33.898438 98.359375 153.226562 74.265625 148.144531 C 50.171875 143.0625 44.679688 101.507812 132.582031 54.179688 C 220.484375 6.847656 298.695312 44.5 332.503906 101.625 C 366.3125 158.746094 360.820312 222.617188 347.710938 248.003906 C 334.601562 273.386719 371.804688 300.875 355.742188 318.664062 C 339.679688 336.425781 341.804688 355.898438 325.304688 358.855469 C 308.824219 361.8125 300.886719 362.019531 299.617188 352.824219 C 298.347656 343.632812 301.832031 341.390625 317.6875 331.25 C 333.542969 321.085938 332.894531 317.601562 321.171875 313.488281 C 309.449219 309.351562 310.71875 292.238281 303.101562 296.671875 C 295.488281 301.105469 290.734375 330.304688 244.460938 347.445312 C 198.167969 364.582031 169.96875 331.574219 107.84375 349.984375 C 45.71875 368.347656 7.0625 353.65625 3.257812 346.566406 Z M 3.257812 346.566406 " fill-opacity="1" fill-rule="nonzero"/></svg>